HIERARCHY
ROOT Hips
{
	OFFSET 0.00000 0.00000 0.00000
	CHANNELS 6 Xposition Yposition Zposition Zrotation Yrotation Xrotation 
	JOINT LHipJoint
	{
		OFFSET 0 0 0
		CHANNELS 3 Zrotation Yrotation Xrotation
		JOINT LeftUpLeg
		{
			OFFSET 1.41496 -1.84582 0.78394
			CHANNELS 3 Zrotation Yrotation Xrotation
			JOINT LeftLeg
			{
				OFFSET 2.58040 -7.08960 0.00000
				CHANNELS 3 Zrotation Yrotation Xrotation
				JOINT LeftFoot
				{
					OFFSET 2.64719 -7.27309 0.00000
					CHANNELS 3 Zrotation Yrotation Xrotation
					JOINT LeftToeBase
					{
						OFFSET 0.20718 -0.56921 2.20259
						CHANNELS 3 Zrotation Yrotation Xrotation
						End Site
						{
							OFFSET 0.00000 -0.00000 1.14243
						}
					}
				}
			}
		}
	}
	JOINT RHipJoint
	{
		OFFSET 0 0 0
		CHANNELS 3 Zrotation Yrotation Xrotation
		JOINT RightUpLeg
		{
			OFFSET -1.40551 -1.84582 0.78394
			CHANNELS 3 Zrotation Yrotation Xrotation
			JOINT RightLeg
			{
				OFFSET -2.56572 -7.04926 0.00000
				CHANNELS 3 Zrotation Yrotation Xrotation
				JOINT RightFoot
				{
					OFFSET -2.57974 -7.08778 0.00000
					CHANNELS 3 Zrotation Yrotation Xrotation
					JOINT RightToeBase
					{
						OFFSET -0.26704 -0.73369 2.20815
						CHANNELS 3 Zrotation Yrotation Xrotation
						End Site
						{
							OFFSET -0.00000 -0.00000 1.16246
						}
					}
				}
			}
		}
	}
	JOINT LowerBack
	{
		OFFSET 0 0 0
		CHANNELS 3 Zrotation Yrotation Xrotation
		JOINT Spine
		{
			OFFSET -0.04690 2.05196 -0.07017
			CHANNELS 3 Zrotation Yrotation Xrotation
			JOINT Spine1
			{
				OFFSET 0.04085 2.05260 0.00800
				CHANNELS 3 Zrotation Yrotation Xrotation
				JOINT Neck
				{
					OFFSET 0 0 0
					CHANNELS 3 Zrotation Yrotation Xrotation
					JOINT Neck1
					{
						OFFSET -0.03582 1.80995 0.19301
						CHANNELS 3 Zrotation Yrotation Xrotation
						JOINT Head
						{
							OFFSET 0.00952 1.80195 -0.36389
							CHANNELS 3 Zrotation Yrotation Xrotation
							End Site
							{
								OFFSET 0.00392 1.85062 -0.14494
							}
						}
					}
				}
				JOINT LeftShoulder
				{
					OFFSET 0 0 0
					CHANNELS 3 Zrotation Yrotation Xrotation
					JOINT LeftArm
					{
						OFFSET 3.55224 1.39726 -0.13667
						CHANNELS 3 Zrotation Yrotation Xrotation
						JOINT LeftForeArm
						{
							OFFSET 5.14507 -0.00000 -0.00000
							CHANNELS 3 Zrotation Yrotation Xrotation
							JOINT LeftHand
							{
								OFFSET 3.50646 -0.00000 0.00000
								CHANNELS 3 Zrotation Yrotation Xrotation
								JOINT LeftFingerBase
								{
									OFFSET 0 0 0
									CHANNELS 3 Zrotation Yrotation Xrotation
									JOINT LeftHandIndex1
									{
										OFFSET 0.62997 -0.00000 0.00000
										CHANNELS 3 Zrotation Yrotation Xrotation
										End Site
										{
											OFFSET 0.50790 -0.00000 0.00000
										}
									}
								}
								JOINT LThumb
								{
									OFFSET 0 0 0
									CHANNELS 3 Zrotation Yrotation Xrotation
									End Site
									{
										OFFSET 0.51565 -0.00000 0.51565
									}
								}
							}
						}
					}
				}
				JOINT RightShoulder
				{
					OFFSET 0 0 0
					CHANNELS 3 Zrotation Yrotation Xrotation
					JOINT RightArm
					{
						OFFSET -3.06467 1.61290 -0.28813
						CHANNELS 3 Zrotation Yrotation Xrotation
						JOINT RightForeArm
						{
							OFFSET -5.23200 -0.00000 -0.00000
							CHANNELS 3 Zrotation Yrotation Xrotation
							JOINT RightHand
							{
								OFFSET -3.65641 -0.00000 0.00000
								CHANNELS 3 Zrotation Yrotation Xrotation
								JOINT RightFingerBase
								{
									OFFSET 0 0 0
									CHANNELS 3 Zrotation Yrotation Xrotation
									JOINT RightHandIndex1
									{
										OFFSET -0.65681 -0.00000 0.00000
										CHANNELS 3 Zrotation Yrotation Xrotation
										End Site
										{
											OFFSET -0.52953 -0.00000 0.00000
										}
									}
								}
								JOINT RThumb
								{
									OFFSET 0 0 0
									CHANNELS 3 Zrotation Yrotation Xrotation
									End Site
									{
										OFFSET -0.53762 -0.00000 0.53762
									}
								}
							}
						}
					}
				}
			}
		}
	}
}
MOTION
Frames: 13
Frame Time: 0.0434783
0.00 0.00 0.00 -158.2300 36.7303 103.9830 0.0000 0.0000 0.0000 -11.2059 14.7356 -87.9414 34.7965 13.6094 138.3053 0.2193 -6.4108 13.4463 0.0490 1.4282 3.9279 0.0000 0.0000 0.0000 18.7002 -58.2880 -98.3613 -36.5409 -11.4035 146.3470 -0.4265 -6.5372 11.8097 -0.5259 -4.6472 12.9051 -3.5517 -0.5872 26.1518 4.9142 0.1683 8.7051 7.3768 0.7053 -4.7829 -7.5200 -6.2083 -7.9583 3.4136 -7.8336 11.8238 1.7159 -3.9170 5.3007 -0.0000 -0.0000 0.0000 -83.8908 1.3971 20.9870 102.6106 -59.3905 -70.8988 -0.0000 -0.0000 8.6980 31.4820 8.0832 4.9213 -7.1250 0.0000 -0.0000 4.0375 39.4042 -0.5578 -0.0000 -0.0000 0.0000 47.2250 38.0186 8.8037 -91.6285 59.9900 -61.4102 0.0000 -0.0000 -9.5778 -35.9222 -5.5091 3.9787 7.1250 -0.0000 -0.0000 -7.7954 -36.6743 -1.6083
0.00 0.00 0.00 -155.5260 23.5774 114.3210 0.0000 0.0000 0.0000 -18.9398 5.9740 -80.7981 32.0172 16.1066 127.4995 -0.0802 5.7353 0.8690 0.1776 2.7148 7.4858 0.0000 0.0000 0.0000 8.5965 -53.1924 -102.4408 -35.8321 -12.3806 142.9081 -0.3878 -4.4606 11.0821 -0.1587 -2.5669 7.0751 -11.8532 0.5568 24.0390 2.7424 -0.6638 7.6994 10.0260 0.1124 -4.4587 -7.0609 -6.2718 -8.7607 4.4398 -8.0650 12.8483 1.9096 -3.9125 5.7912 0.0000 0.0000 0.0000 -82.5278 6.3387 17.2112 83.4309 -59.8363 -54.3141 -0.0000 -0.0000 13.4613 30.8000 9.2901 5.4968 -7.1250 0.0000 -0.0000 3.4138 40.7387 -0.3592 0.0000 0.0000 0.0000 39.2945 39.7243 2.5348 -84.6944 59.8934 -55.4069 0.0000 -0.0000 -12.2206 -35.0688 -6.6165 4.6244 7.1250 -0.0000 -0.0000 -7.1279 -37.9580 -1.2434
0.00 0.00 0.00 -147.1880 13.1193 129.5270 0.0000 0.0000 0.0000 -28.9526 4.8278 -83.9114 29.7644 17.5402 119.7270 0.2634 1.0999 -10.1586 5.7582 -14.1899 -44.0035 0.0000 0.0000 0.0000 3.5449 -41.1260 -100.4051 -33.8361 -14.5853 134.3642 -0.0907 0.7463 6.0141 -0.3992 4.0567 -11.2362 -10.0585 1.7893 24.3270 3.4260 -1.3046 7.6481 10.0460 -1.4018 -4.7517 -7.6898 -6.7663 -9.3163 7.0620 -8.9747 13.0650 2.7327 -4.1629 6.1591 0.0000 0.0000 0.0000 -80.5495 3.7187 16.5013 45.8546 -51.1804 -22.9027 -0.0000 -0.0000 19.2603 29.4101 7.7624 4.3539 -7.1250 0.0000 -0.0000 2.2361 38.8642 -0.3382 0.0000 0.0000 0.0000 25.1530 36.9150 -10.4363 -81.5968 59.7315 -52.7292 0.0000 -0.0000 -10.5796 -34.3973 -5.0698 3.4623 7.1250 -0.0000 -0.0000 -6.4811 -36.0523 -1.4330
0.00 0.00 0.00 -134.0060 -1.1919 139.9580 0.0000 0.0000 0.0000 -32.8584 8.8656 -90.6220 32.3540 15.8526 128.7226 0.1798 -8.2204 -8.8765 2.9378 -10.5936 -30.9213 0.0000 0.0000 0.0000 1.2990 -24.7994 -95.2574 -30.0812 -17.3640 120.7833 0.1050 6.4420 5.4732 -2.4252 9.7007 -28.0127 1.4528 0.0242 35.2357 5.8590 -1.7388 9.3323 6.2422 -2.2076 -7.3675 -7.5660 -7.5377 -11.2774 11.9400 -10.5616 12.4405 4.0549 -4.4450 6.7008 -0.0000 -0.0000 0.0000 -78.0119 -9.9226 23.2551 26.6008 -37.7959 -9.2534 -0.0000 -0.0000 46.1863 42.8158 -0.9933 -0.9202 -7.1250 0.0000 -0.0000 12.5581 28.5304 -5.1488 -0.0000 -0.0000 0.0000 12.0548 34.7540 -23.9713 -79.6009 59.5874 -51.0066 0.0000 -0.0000 -12.9956 -35.1211 -7.8956 5.5188 7.1250 -0.0000 -0.0000 -7.2305 -39.5038 -0.9854
0.00 0.00 0.00 -133.2950 -14.6004 145.1280 0.0000 0.0000 0.0000 -37.3579 12.2976 -94.1816 34.2959 14.1354 136.2176 0.1713 -8.8356 -9.0193 0.0019 0.2816 0.7737 0.0000 0.0000 0.0000 0.4166 -11.1281 -99.6801 -25.3386 -19.3025 105.7855 0.3182 10.6761 8.0873 -4.6912 13.0274 -39.4710 4.3483 -0.0193 43.5663 6.5032 -1.2682 10.4756 5.5747 -2.4590 -8.6226 -7.4947 -7.4631 -11.4269 16.2574 -11.2781 8.3274 5.3085 -5.0200 5.7960 -0.0000 0.0000 0.0000 -75.9459 -14.0122 28.0914 31.2039 -41.9032 -12.2058 -0.0000 -0.0000 29.0176 41.0711 -13.6983 -11.6605 -7.1250 0.0000 -0.0000 9.1137 12.2324 -7.0680 -0.0000 0.0000 0.0000 3.6015 36.0370 -25.0507 -69.3682 58.3289 -42.2326 0.0000 -0.0000 -14.4999 -31.5803 -7.0657 4.3243 7.1250 -0.0000 -0.0000 -4.1268 -38.2280 -0.6896
0.00 0.00 0.00 -141.1600 -33.4186 156.2230 0.0000 0.0000 0.0000 -30.4682 29.5826 -88.2518 36.0286 12.1223 143.8340 -4.5583 -37.0832 0.3300 0.0539 1.4976 4.1192 0.0000 0.0000 0.0000 16.4411 1.7986 -114.7685 -21.0055 -19.9757 92.9411 -0.3776 3.8441 13.6649 -3.3950 11.3085 -33.3275 -0.9501 0.4700 46.9192 3.7478 -3.4587 12.5434 6.2000 -3.4423 -7.0383 -6.8895 -6.8442 -11.0713 24.4836 -11.1661 2.2721 7.8978 -5.2600 4.4834 0.0000 0.0000 0.0000 -64.2080 -14.2166 21.2350 21.9624 -32.9345 -6.5654 -0.0000 -0.0000 33.6731 75.4734 -29.4294 -62.1952 -7.1250 0.0000 -0.0000 24.4073 -31.9083 -35.4861 0.0000 0.0000 0.0000 21.9805 34.4710 -10.3473 -78.1572 59.4634 -49.7624 0.0000 -0.0000 -13.2261 -27.4258 -2.7525 1.4275 7.1250 -0.0000 -0.0000 -0.6736 -33.0797 -0.1968
0.00 0.00 0.00 -153.4270 -53.6831 170.9790 0.0000 0.0000 0.0000 -20.6840 16.3751 -74.8184 35.4315 12.8807 141.0764 -2.3954 -32.5094 -8.7360 0.0904 1.9387 5.3362 0.0000 0.0000 0.0000 11.3836 7.8712 -110.9113 -23.4120 -19.7186 100.0211 0.3787 -11.2122 -1.0303 -0.0758 -1.7757 4.8860 -0.1973 -2.4534 47.3288 3.2736 -5.3775 10.5089 6.2387 -3.6401 -9.3231 -9.6568 -8.9214 -8.8858 27.0236 -12.6365 -3.3100 9.1582 -6.4084 3.1468 0.0000 -0.0000 0.0000 -63.0524 -26.6708 5.6322 6.4741 -11.0505 -0.6269 -0.0000 -0.0000 48.5182 52.6472 -12.9025 -16.3070 -7.1250 0.0000 -0.0000 16.5296 9.9442 -14.0400 0.0000 -0.0000 0.0000 37.9343 29.9335 -3.9161 -72.8914 58.8646 -45.2400 0.0000 -0.0000 -10.6551 -25.7013 -3.6654 1.7624 7.1250 -0.0000 -0.0000 0.7584 -34.0456 0.2038
0.00 0.00 0.00 -169.1090 -55.1360 187.3320 0.0000 0.0000 0.0000 -26.2601 3.2580 -65.2116 32.2759 15.9126 128.4372 1.4974 -15.3751 -22.9162 0.0125 -0.7228 -1.9865 0.0000 0.0000 0.0000 13.4507 7.6446 -105.3153 -22.3327 -19.8690 96.8347 0.0205 -6.4851 -8.7060 -0.0021 -0.2985 0.8203 -0.3867 -1.7822 43.4720 2.8839 -4.0491 8.9371 5.2383 -2.7029 -10.2229 -10.8866 -10.2910 -9.6812 25.4347 -13.6362 -5.6257 8.7066 -6.8941 2.7381 -0.0000 0.0000 0.0000 -70.8830 -29.6291 19.5472 10.6266 -17.7137 -1.6605 -0.0000 -0.0000 33.3363 24.0397 0.4227 0.1886 -7.1250 0.0000 -0.0000 -2.0007 30.4394 0.7117 -0.0000 0.0000 0.0000 47.0921 28.7152 3.1590 -62.7864 57.0078 -36.6690 0.0000 -0.0000 -8.7498 -27.2281 -4.5578 2.3414 7.1250 -0.0000 -0.0000 -0.4757 -35.1023 -0.1156
0.00 0.00 0.00 -176.8990 -52.0186 195.5080 0.0000 0.0000 0.0000 -29.7486 -0.6848 -58.0648 28.2918 18.2645 114.9392 1.8456 -4.2316 -24.6934 0.1020 -2.0596 -5.6703 0.0000 0.0000 0.0000 17.3201 6.8467 -96.9890 -19.6168 -19.9965 88.8795 -0.3879 -1.2128 -12.2681 -0.0903 1.9381 -5.3345 -1.0226 -1.4487 40.7646 2.4582 -3.5617 7.5479 4.8526 -2.2673 -11.0168 -11.8273 -10.8304 -9.5710 24.1675 -13.8267 -8.2357 8.4967 -7.1295 1.9412 -0.0000 -0.0000 0.0000 -75.8546 -23.1219 24.4478 16.5217 -26.2229 -3.8736 -0.0000 -0.0000 24.8904 31.9958 0.5782 0.3612 -7.1250 0.0000 -0.0000 4.3072 30.6459 -1.5139 -0.0000 -0.0000 0.0000 56.1063 27.0089 12.0280 -58.6973 55.9527 -33.2594 0.0000 -0.0000 -5.5272 -26.9916 -4.1740 2.1231 7.1250 -0.0000 -0.0000 -0.2899 -34.6618 -0.0736
0.00 0.00 0.00 -180.9200 -47.0613 200.6940 0.0000 0.0000 0.0000 -27.4153 -8.2621 -57.0569 25.1252 19.3582 105.1407 0.2003 4.6440 -11.4493 0.0501 1.4448 3.9735 0.0000 0.0000 0.0000 24.6597 3.8516 -84.2771 -14.2140 -19.1777 72.8569 -0.1621 8.8178 -8.8757 -0.0000 -0.0183 0.0502 -2.1558 -1.0287 37.7920 2.1433 -3.1434 6.0340 4.8818 -1.8599 -11.7372 -11.0811 -11.1308 -9.9686 23.7189 -14.0107 -11.9681 8.3213 -7.5514 0.8553 0.0000 0.0000 0.0000 -79.4077 -13.2217 26.1773 24.6921 -35.8876 -8.1087 -0.0000 -0.0000 15.8151 32.7540 -2.3429 -1.5065 -7.1250 0.0000 -0.0000 4.7243 27.1866 -2.0503 0.0000 0.0000 0.0000 72.1597 22.1061 19.0912 -56.6065 55.3357 -31.5333 0.0000 -0.0000 -3.0425 -27.4186 -4.9771 2.5769 7.1250 -0.0000 -0.0000 -0.6227 -35.5823 -0.1441
0.00 0.00 0.00 -181.1080 -42.5973 201.0920 0.0000 0.0000 0.0000 -21.4780 -15.4233 -61.0666 24.3187 19.5468 102.7192 0.0655 8.4448 -13.2329 0.4983 4.5257 12.5605 0.0000 0.0000 0.0000 28.2713 0.9634 -78.2836 -11.8343 -18.3197 65.4625 0.8005 15.6175 6.4382 -0.2806 -3.4067 9.4130 -2.9591 -0.3176 36.3608 1.7826 -2.5258 5.7666 4.6255 -1.5380 -11.5556 -10.1474 -10.8252 -11.1289 23.2536 -13.6979 -12.4599 8.0267 -7.4493 0.7239 -0.0000 -0.0000 0.0000 -80.6434 -9.5659 26.6531 26.7006 -37.8922 -9.3146 -0.0000 -0.0000 14.9949 33.3709 -2.9218 -1.9229 -7.1250 0.0000 -0.0000 5.1503 26.4758 -2.3228 -0.0000 -0.0000 0.0000 81.2038 19.6761 21.3791 -50.7147 53.2797 -26.7460 0.0000 -0.0000 -3.8740 -27.5315 -5.4951 2.8576 7.1250 -0.0000 -0.0000 -0.7016 -36.1707 -0.1523
0.00 0.00 0.00 -181.6660 -35.2513 201.6610 0.0000 0.0000 0.0000 -11.3192 -23.1868 -65.5878 19.4536 19.9928 88.4023 0.6191 5.2776 -17.7181 0.5614 4.7991 13.3363 0.0000 0.0000 0.0000 22.3168 1.4501 -74.5993 -12.2789 -18.5061 66.8702 0.7234 15.9168 12.0562 -2.0780 9.0267 -25.8789 -3.4875 0.6158 35.6526 0.6862 -1.5916 4.9210 3.3496 -1.0341 -12.3365 -10.0074 -10.4766 -12.5608 22.0558 -13.3023 -11.8436 7.5890 -7.1423 0.9261 -0.0000 0.0000 0.0000 -82.5878 -5.7841 26.1512 28.0079 -39.1235 -10.1287 -0.0000 -0.0000 13.1407 31.4324 -5.9123 -3.6023 -7.1250 0.0000 -0.0000 3.4730 23.0631 -1.8382 -0.0000 0.0000 0.0000 87.0707 18.6167 23.5638 -38.8832 47.3941 -17.6128 0.0000 -0.0000 -2.3387 -27.1439 -3.7659 1.9286 7.1250 -0.0000 -0.0000 -0.4256 -34.2098 -0.1127
0.00 0.00 0.00 -183.3420 -29.5196 201.9560 0.0000 0.0000 0.0000 -6.3095 -26.3561 -64.9786 13.6691 19.0106 71.1913 0.9403 -7.3229 -17.3288 0.0107 -0.6675 -1.8344 0.0000 0.0000 0.0000 13.5158 3.7122 -70.4183 -13.3880 -18.9178 70.3263 0.6141 14.0207 2.1259 -2.8466 10.4424 -30.4216 -4.2888 1.6030 35.2900 -0.0450 -0.6680 4.2075 2.6243 -0.5331 -13.1870 -10.6781 -10.7301 -13.8288 20.3911 -13.5723 -9.8965 7.0257 -7.0055 1.6009 0.0000 0.0000 0.0000 -84.5385 -2.8418 26.9059 28.9501 -39.9763 -10.7286 -0.0000 -0.0000 13.8730 31.6425 -7.5138 -4.6070 -7.1250 0.0000 -0.0000 3.4953 21.1799 -2.0000 0.0000 0.0000 0.0000 88.0592 18.5678 23.3961 -30.8434 41.6054 -11.9657 0.0000 0.0000 0.1262 -27.0756 -3.0934 1.5801 7.1250 -0.0000 -0.0000 -0.3830 -33.4528 -0.1084
